<svg width="40" height="40" viewBox="0 0 40 40" fill="none" xmlns="http://www.w3.org/2000/svg">
<path d="M20.0006 26.6667C23.6825 26.6667 26.6673 23.6818 26.6673 20C26.6673 16.3181 23.6825 13.3333 20.0006 13.3333C16.3187 13.3333 13.3339 16.3181 13.3339 20C13.3339 23.6818 16.3187 26.6667 20.0006 26.6667ZM35.0081 6.67155H5.0081C4.08763 6.67155 3.34143 7.41773 3.34143 8.33822V31.6715C3.34143 32.592 4.08763 33.3382 5.0081 33.3382H35.0081C35.9286 33.3382 36.6748 32.592 36.6748 31.6715V8.33822C36.6748 7.41773 35.9286 6.67155 35.0081 6.67155ZM6.67476 26.0772V13.9229C8.55105 13.3617 10.0306 11.8815 10.5909 10.0049H29.4103C29.9721 11.8866 31.458 13.3696 33.3415 13.9273V26.0727C31.4548 26.6313 29.967 28.1185 29.4073 30.0048H10.5938C10.0357 28.1237 8.55431 26.6393 6.67476 26.0772Z" fill="black"/>
</svg>
