<svg width="139" height="120" viewBox="0 0 139 120" fill="none" xmlns="http://www.w3.org/2000/svg">
<path d="M86.0028 114.667C101.835 114.667 114.67 101.832 114.67 86C114.67 70.1678 101.835 57.3333 86.0028 57.3333C70.1705 57.3333 57.336 70.1678 57.336 86C57.336 101.832 70.1705 114.667 86.0028 114.667ZM150.535 28.6877H21.535C17.5769 28.6877 14.3683 31.8962 14.3683 35.8543V136.187C14.3683 140.146 17.5769 143.354 21.535 143.354H150.535C154.493 143.354 157.702 140.146 157.702 136.187V35.8543C157.702 31.8962 154.493 28.6877 150.535 28.6877ZM28.7016 112.132V59.8682C36.7696 57.4552 43.1316 51.0906 45.5409 43.021H126.464C128.88 51.1122 135.269 57.4892 143.368 59.8875V112.112C135.256 114.515 128.858 120.91 126.452 129.021H45.5535C43.1536 120.932 36.7837 114.549 28.7016 112.132Z" fill="white"/>
</svg>
