<svg width="32" height="32" viewBox="0 0 32 32" fill="none" xmlns="http://www.w3.org/2000/svg">
<rect width="32" height="32" rx="8" fill="#FFF5E0"/>
<g clip-path="url(#clip0_378_14600)">
<path d="M13 13.86L9.96802 16L13 18.14V13.86ZM14.908 21.323C14.8315 21.4311 14.7153 21.5044 14.5848 21.5269C14.4543 21.5494 14.3203 21.5192 14.212 21.443L7.07902 16.408C7.0138 16.3618 6.96061 16.3006 6.92391 16.2297C6.8872 16.1587 6.86804 16.0799 6.86804 16C6.86804 15.9201 6.8872 15.8413 6.92391 15.7703C6.96061 15.6993 7.0138 15.6382 7.07902 15.592L14.212 10.556C14.2869 10.5032 14.3749 10.472 14.4663 10.4659C14.5577 10.4597 14.649 10.4787 14.7304 10.5209C14.8117 10.5631 14.8798 10.6269 14.9274 10.7052C14.9749 10.7835 15.0001 10.8734 15 10.965V21.035C14.9998 21.1382 14.9677 21.2388 14.908 21.323ZM22 18.14V13.86L18.968 16L22 18.14ZM16.079 16.408C16.0138 16.3618 15.9606 16.3006 15.9239 16.2297C15.8872 16.1587 15.868 16.0799 15.868 16C15.868 15.9201 15.8872 15.8413 15.9239 15.7703C15.9606 15.6993 16.0138 15.6382 16.079 15.592L23.212 10.556C23.2869 10.5032 23.3749 10.472 23.4663 10.4659C23.5577 10.4597 23.649 10.4787 23.7304 10.5209C23.8117 10.5631 23.8798 10.6269 23.9274 10.7052C23.9749 10.7835 24.0001 10.8734 24 10.965V21.035C24.0001 21.1266 23.9749 21.2165 23.9274 21.2948C23.8798 21.3731 23.8117 21.4368 23.7304 21.4791C23.649 21.5213 23.5577 21.5403 23.4663 21.5341C23.3749 21.528 23.2869 21.4968 23.212 21.444L16.079 16.408Z" fill="#CC8600"/>
</g>
<defs>
<clipPath id="clip0_378_14600">
<rect width="24" height="24" fill="white" transform="translate(4 4)"/>
</clipPath>
</defs>
</svg>
