<svg width="20" height="20" viewBox="0 0 20 20" fill="none" xmlns="http://www.w3.org/2000/svg">
<g clip-path="url(#clip0_557_4935)">
<path d="M15.0258 13.8475L18.595 17.4158L17.4158 18.595L13.8475 15.0258C12.5197 16.0902 10.8683 16.6691 9.16663 16.6667C5.02663 16.6667 1.66663 13.3067 1.66663 9.16666C1.66663 5.02666 5.02663 1.66666 9.16663 1.66666C13.3066 1.66666 16.6666 5.02666 16.6666 9.16666C16.669 10.8683 16.0901 12.5198 15.0258 13.8475ZM13.3541 13.2292C14.4117 12.1416 15.0023 10.6837 15 9.16666C15 5.94332 12.3891 3.33332 9.16663 3.33332C5.94329 3.33332 3.33329 5.94332 3.33329 9.16666C3.33329 12.3892 5.94329 15 9.16663 15C10.6837 15.0024 12.1415 14.4118 13.2291 13.3542L13.3541 13.2292V13.2292ZM10.1483 5.97999C9.90257 6.09099 9.68744 6.25995 9.52137 6.47237C9.3553 6.68479 9.24325 6.93433 9.19483 7.19958C9.14641 7.46483 9.16306 7.73787 9.24337 7.99527C9.32367 8.25266 9.46523 8.48673 9.65589 8.67739C9.84655 8.86805 10.0806 9.00961 10.338 9.08991C10.5954 9.17022 10.8685 9.18688 11.1337 9.13846C11.399 9.09003 11.6485 8.97798 11.8609 8.81191C12.0733 8.64584 12.2423 8.43072 12.3533 8.18499C12.5723 8.89634 12.5469 9.66053 12.2812 10.3558C12.0155 11.051 11.5247 11.6374 10.8871 12.0213C10.2495 12.4053 9.50169 12.5648 8.76289 12.4745C8.0241 12.3841 7.33679 12.0491 6.81049 11.5228C6.28419 10.9965 5.94918 10.3092 5.85883 9.57039C5.76848 8.83159 5.928 8.08381 6.31196 7.44619C6.69593 6.80858 7.28225 6.31781 7.9775 6.05209C8.67275 5.78637 9.43694 5.76099 10.1483 5.97999V5.97999Z" fill="#343A40"/>
</g>
<defs>
<clipPath id="clip0_557_4935">
<rect width="20" height="20" fill="white"/>
</clipPath>
</defs>
</svg>
