<svg width="54" height="54" viewBox="0 0 54 54" fill="none" xmlns="http://www.w3.org/2000/svg">
<path d="M45.3333 53.3333H8C3.58173 53.3333 0 49.7517 0 45.3333V2.66667C0 1.19392 1.19392 0 2.66667 0H40C41.4728 0 42.6667 1.19392 42.6667 2.66667V34.6667H53.3333V45.3333C53.3333 49.7517 49.7517 53.3333 45.3333 53.3333ZM42.6667 40V45.3333C42.6667 46.8061 43.8605 48 45.3333 48C46.8061 48 48 46.8061 48 45.3333V40H42.6667ZM37.3333 48V5.33333H5.33333V45.3333C5.33333 46.8061 6.52725 48 8 48H37.3333ZM10.6667 13.3333H32V18.6667H10.6667V13.3333ZM10.6667 24H32V29.3333H10.6667V24ZM10.6667 34.6667H24V40H10.6667V34.6667Z" fill="#F60E0E"/>
</svg>
