<svg width="48" height="48" viewBox="0 0 48 48" fill="none" xmlns="http://www.w3.org/2000/svg">
<g clip-path="url(#clip0_175_3697)">
<path d="M4 40H44V44H4V40ZM8 24H12V38H8V24ZM18 24H22V38H18V24ZM26 24H30V38H26V24ZM36 24H40V38H36V24ZM4 14L24 4L44 14V22H4V14ZM24 16C24.5304 16 25.0391 15.7893 25.4142 15.4142C25.7893 15.0391 26 14.5304 26 14C26 13.4696 25.7893 12.9609 25.4142 12.5858C25.0391 12.2107 24.5304 12 24 12C23.4696 12 22.9609 12.2107 22.5858 12.5858C22.2107 12.9609 22 13.4696 22 14C22 14.5304 22.2107 15.0391 22.5858 15.4142C22.9609 15.7893 23.4696 16 24 16V16Z" fill="white"/>
</g>
<defs>
<clipPath id="clip0_175_3697">
<rect width="48" height="48" fill="white"/>
</clipPath>
</defs>
</svg>
