<svg width="131" height="40" viewBox="0 0 131 40" fill="none" xmlns="http://www.w3.org/2000/svg">
<path d="M57.7861 30.394C57.7861 33.7536 55.4791 35.9685 51.3163 35.9685C47.8556 35.9685 46.0751 34.6246 46.0751 32.6089V31.0908H46.1504C47.3039 32.1112 48.8587 32.9324 50.9401 32.9324C53.523 32.9324 54.3506 32.0614 54.3506 30.6927C54.3506 29.523 53.8992 29.0004 50.263 28.2289C47.3541 27.6068 45.699 26.1634 45.699 23.849C45.699 21.012 48.1064 18.3243 52.1438 18.3243C56.1561 18.3243 57.3097 20.0166 57.3097 21.4351V23.0029H57.2094C56.1561 21.883 54.6264 21.3355 52.7456 21.3355C50.0875 21.3355 49.1095 22.2065 49.1095 23.5255C49.1095 24.5458 49.9119 25.168 53.1218 25.8399C56.2564 26.4869 57.7861 28.1045 57.7861 30.394Z" fill="#2A3447"/>
<path d="M59.6736 22.7789C59.6736 21.46 59.9244 20.9623 60.6516 20.1161C61.103 19.5935 61.7048 19.1953 62.2315 19.1953H63.0089V22.2314H67.6983V23.6002C67.6983 24.297 67.0713 25.1929 65.6921 25.1929H63.0089V30.4438C63.0089 32.1858 63.7862 32.8577 65.1404 32.8577C66.2187 32.8577 67.0463 32.7084 67.5729 32.3849H67.6983V33.5794C67.6983 34.9482 66.6952 35.8192 64.7392 35.8192C61.3287 35.8192 59.6736 33.9776 59.6736 30.842V22.7789Z" fill="#2A3447"/>
<path d="M80.1183 27.134C80.1183 29.5977 78.2375 30.394 73.7738 30.394H71.567C71.8178 32.0863 73.3726 33.1564 75.3537 33.1564C76.758 33.1564 78.4131 32.8826 79.4914 31.8872H79.6168V32.9324C79.6168 34.6495 78.4381 35.9685 74.7267 35.9685C71.3664 35.9685 68.0813 33.3306 68.0813 29.2244C68.0813 24.7449 70.8398 21.9328 74.7017 21.9328C77.5103 21.9328 80.1183 23.9237 80.1183 27.134ZM76.9586 26.7358C76.9586 25.3919 75.9555 24.72 74.4007 24.72C72.7707 24.72 71.6422 26.039 71.567 27.5819L71.5419 28.0299H73.0466C76.2314 28.0299 76.9586 27.6815 76.9586 26.7358Z" fill="#2A3447"/>
<path d="M89.4876 25.4915H89.3622C88.8606 25.2924 88.2839 25.0933 87.4062 25.0933C85.9015 25.0933 85.074 25.9146 85.074 27.9552V35.6698H84.1461C82.6415 35.6698 81.6886 34.9233 81.6886 33.5297V27.3579C81.6886 24.6703 83.118 22.107 86.6789 22.107C88.7603 22.107 89.4876 23.2766 89.4876 24.297V25.4915Z" fill="#2A3447"/>
<path d="M97.0293 33.7785C97.0293 35.2219 96.2519 35.7943 94.7724 35.7943C91.9888 35.7943 90.4842 34.326 90.4842 31.6134V17.752H91.4371C93.1173 17.752 93.8445 18.7225 93.8445 19.9917V25.6408V31.2899C93.8445 32.6338 94.5467 33.0568 96.1265 33.0568H97.0293V33.7785Z" fill="#2A3447"/>
<path d="M101.598 19.3198C101.598 20.3899 100.695 21.2858 99.6166 21.2858C98.5382 21.2858 97.6605 20.3899 97.6605 19.3198C97.6605 18.2497 98.5382 17.3787 99.6166 17.3787C100.695 17.3787 101.598 18.2497 101.598 19.3198ZM104.005 33.7785C104.005 35.2219 103.428 35.7943 101.999 35.7943C99.3909 35.7943 97.9615 34.326 97.9615 31.6134C97.9615 30.842 97.9615 22.5301 97.9615 22.5301H98.9144C100.419 22.5301 101.322 23.3264 101.322 25.0187V31.2899C101.322 32.6338 101.899 33.0568 103.378 33.0568H104.005V33.7785Z" fill="#2A3447"/>
<path d="M116.795 35.6698H115.892C114.387 35.6698 113.434 34.7242 113.434 33.4799V28.1543C113.434 25.8897 112.431 24.8942 110.701 24.8942C109.246 24.8942 108.243 25.9892 108.243 27.9054V35.6698H107.24C105.811 35.6698 104.883 34.7242 104.883 33.4799V27.6815C104.883 24.8445 106.764 21.9328 110.977 21.9328C114.161 21.9328 116.795 24.0481 116.795 27.8557V35.6698Z" fill="#2A3447"/>
<path d="M130.9 30.0954C130.9 30.5433 130.925 31.3148 130.95 31.9121C130.975 32.4596 131 33.1812 131 33.6292C131 36.9888 128.743 40 124.38 40C121.596 40 119.69 38.6562 119.69 37.0635V35.5454H119.841C120.643 36.3915 122.198 36.9888 124.129 36.9888C126.561 36.9888 127.665 35.844 127.665 33.9029C127.665 33.7039 127.665 33.4301 127.64 33.2061C127.64 33.007 127.615 32.6586 127.615 32.5342V32.2107C127.339 33.1812 126.06 34.2016 124.129 34.2016C120.844 34.2016 118.512 31.937 118.512 28.7764C118.512 24.9938 121.019 21.9328 125.383 21.9328C128.743 21.9328 130.9 24.3716 130.9 27.8059V30.0954ZM125.007 24.8942C123.276 24.8942 121.972 26.3376 121.972 28.3534C121.972 30.0954 123.051 31.3895 124.655 31.3895C126.336 31.3895 127.539 30.1452 127.539 28.005C127.539 25.9146 126.486 24.8942 125.007 24.8942Z" fill="#2A3447"/>
<ellipse cx="20.0617" cy="19.9088" rx="20.0617" ry="19.9088" fill="#DB353A"/>
<ellipse cx="27.167" cy="12.0282" rx="6.26928" ry="6.22148" fill="white"/>
</svg>
