<svg width="183" height="56" viewBox="0 0 183 56" fill="none" xmlns="http://www.w3.org/2000/svg">
<path d="M80.7241 42.5516C80.7241 47.255 77.5012 50.3558 71.686 50.3558C66.8517 50.3558 64.3645 48.4744 64.3645 45.6524V43.5271H64.4696C66.081 44.9555 68.2529 46.1053 71.1606 46.1053C74.7688 46.1053 75.9248 44.8859 75.9248 42.9696C75.9248 41.3322 75.2943 40.6005 70.2147 39.5205C66.1511 38.6494 63.839 36.6287 63.839 33.3886C63.839 29.4168 67.202 25.654 72.8421 25.654C78.4471 25.654 80.0585 28.0232 80.0585 30.009V32.204H79.9184C78.4471 30.6362 76.3102 29.8697 73.6828 29.8697C69.9695 29.8697 68.6033 31.0891 68.6033 32.9356C68.6033 34.3641 69.7243 35.2351 74.2083 36.1758C78.5872 37.0816 80.7241 39.3463 80.7241 42.5516Z" fill="#F0F1F5"/>
<path d="M83.3608 31.8904C83.3608 30.0439 83.7111 29.3471 84.727 28.1625C85.3576 27.4309 86.1983 26.8734 86.934 26.8734H88.02V31.1239H94.5708V33.0402C94.5708 34.0157 93.6951 35.2699 91.7683 35.2699H88.02V42.6212C88.02 45.0601 89.1059 46.0008 90.9976 46.0008C92.504 46.0008 93.66 45.7917 94.3957 45.3388H94.5708V47.0111C94.5708 48.9273 93.1696 50.1468 90.4371 50.1468C85.6729 50.1468 83.3608 47.5686 83.3608 43.1787V31.8904Z" fill="#F0F1F5"/>
<path d="M111.921 37.9875C111.921 41.4367 109.294 42.5516 103.058 42.5516H99.9753C100.326 44.9207 102.498 46.4188 105.265 46.4188C107.227 46.4188 109.539 46.0356 111.045 44.642H111.22V46.1053C111.22 48.5093 109.574 50.3558 104.389 50.3558C99.695 50.3558 95.1059 46.6627 95.1059 40.9141C95.1059 34.6428 98.9593 30.7059 104.354 30.7059C108.278 30.7059 111.921 33.4931 111.921 37.9875ZM107.507 37.43C107.507 35.5487 106.106 34.608 103.934 34.608C101.657 34.608 100.08 36.4545 99.9753 38.6146L99.9402 39.2417H102.042C106.491 39.2417 107.507 38.754 107.507 37.43Z" fill="#F0F1F5"/>
<path d="M125.009 35.688H124.834C124.134 35.4093 123.328 35.1306 122.102 35.1306C120 35.1306 118.844 36.2803 118.844 39.1372V49.9377H117.548C115.446 49.9377 114.115 48.8925 114.115 46.9414V38.301C114.115 34.5383 116.111 30.9497 121.086 30.9497C123.993 30.9497 125.009 32.5872 125.009 34.0157V35.688Z" fill="#F0F1F5"/>
<path d="M135.545 47.2898C135.545 49.3106 134.459 50.1119 132.392 50.1119C128.503 50.1119 126.402 48.0563 126.402 44.2587V24.8527H127.733C130.08 24.8527 131.096 26.2115 131.096 27.9883V35.8971V43.8058C131.096 45.6872 132.077 46.2795 134.284 46.2795H135.545V47.2898Z" fill="#F0F1F5"/>
<path d="M141.926 27.0476C141.926 28.5458 140.665 29.8 139.159 29.8C137.653 29.8 136.427 28.5458 136.427 27.0476C136.427 25.5495 137.653 24.3301 139.159 24.3301C140.665 24.3301 141.926 25.5495 141.926 27.0476ZM145.289 47.2898C145.289 49.3106 144.484 50.1119 142.487 50.1119C138.844 50.1119 136.847 48.0563 136.847 44.2587C136.847 43.1787 136.847 31.542 136.847 31.542H138.178C140.28 31.542 141.541 32.6569 141.541 35.0261V43.8058C141.541 45.6872 142.347 46.2795 144.414 46.2795H145.289V47.2898Z" fill="#F0F1F5"/>
<path d="M163.156 49.9377H161.895C159.793 49.9377 158.462 48.6138 158.462 46.8718V39.4159C158.462 36.2455 157.06 34.8519 154.643 34.8519C152.611 34.8519 151.21 36.3848 151.21 39.0675V49.9377H149.809C147.812 49.9377 146.516 48.6138 146.516 46.8718V38.754C146.516 34.7822 149.143 30.7059 155.028 30.7059C159.477 30.7059 163.156 33.6673 163.156 38.9979V49.9377Z" fill="#F0F1F5"/>
<path d="M182.86 42.1335C182.86 42.7606 182.895 43.8407 182.93 44.6768C182.965 45.4433 183 46.4537 183 47.0808C183 51.7842 179.847 55.9999 173.752 55.9999C169.863 55.9999 167.201 54.1185 167.201 51.8888V49.7635H167.411C168.532 50.9481 170.704 51.7842 173.401 51.7842C176.799 51.7842 178.341 50.1816 178.341 47.464C178.341 47.1853 178.341 46.8021 178.306 46.4885C178.306 46.2098 178.271 45.722 178.271 45.5478V45.0949C177.885 46.4537 176.099 47.8821 173.401 47.8821C168.812 47.8821 165.554 44.7117 165.554 40.2869C165.554 34.9912 169.057 30.7059 175.153 30.7059C179.847 30.7059 182.86 34.1202 182.86 38.9282V42.1335ZM174.627 34.8519C172.21 34.8519 170.389 36.8726 170.389 39.6947C170.389 42.1335 171.895 43.9452 174.137 43.9452C176.484 43.9452 178.166 42.2032 178.166 39.2069C178.166 36.2803 176.694 34.8519 174.627 34.8519Z" fill="#F0F1F5"/>
<ellipse cx="28.0251" cy="27.8723" rx="28.0251" ry="27.8723" fill="#DB353A"/>
<ellipse cx="37.9507" cy="16.8395" rx="8.75785" ry="8.71008" fill="white"/>
</svg>
