<svg width="680" height="1080" viewBox="0 0 680 1080" fill="none" xmlns="http://www.w3.org/2000/svg">
<g clip-path="url(#clip0_317_20543)">
<rect width="680" height="1080" fill="white"/>
<path d="M8.61296 282.938L-7.87602 310.057M-7.87602 310.057L9.35683 339.406M-7.87602 310.057L25.5978 310.924M9.35683 339.406L-7.87602 368.382M9.35683 339.406H41.9334M-7.87602 368.382L9.35683 396.988M-7.87602 368.382L25.5978 368.011M9.35683 396.988L-7.87602 425.469M9.35683 396.988H41.9446M-7.87602 425.469L9.35683 454.074M-7.87602 425.469L25.4739 425.345M9.35683 454.074L-7.87602 482.68M9.35683 454.074H41.9628M-7.87602 482.68L9.35683 511.532M-7.87602 482.68L25.3499 482.556M9.35683 511.532L-7.84957 540.014M9.35683 511.532H41.9628M-7.84957 540.014L8.48899 568H41.8707L25.8458 540.014M-7.84957 540.014H25.8458M25.8458 540.014L41.9628 511.532M41.9628 511.532L25.3499 482.556M25.3499 482.556L41.9628 454.074M41.9628 454.074L25.4739 425.345M25.4739 425.345L41.9446 396.988M41.9446 396.988L25.5978 368.011M25.5978 368.011L41.9334 339.406M41.9334 339.406L25.5978 310.924M25.5978 310.924L41.8389 282.938M108.167 282.938L91.6777 310.057M91.6777 310.057L108.911 339.406M91.6777 310.057L125.152 310.924M91.6777 310.057L75.1887 282.938M91.6777 310.057L74.4448 339.406M91.6777 310.057L58.2038 310.924M108.911 339.406L91.6777 368.382M108.911 339.406H141.487M91.6777 368.382L108.911 396.988M91.6777 368.382L125.152 368.011M91.6777 368.382L74.4448 339.406M91.6777 368.382L74.4448 396.988M91.6777 368.382L58.2038 368.011M108.911 396.988L91.6777 425.469M108.911 396.988H141.498M91.6777 425.469L108.911 454.074M91.6777 425.469L125.028 425.345M91.6777 425.469L74.4448 396.988M91.6777 425.469L74.4448 454.074M91.6777 425.469L58.3278 425.345M108.911 454.074L91.6777 482.68M108.911 454.074H141.517M91.6777 482.68L108.911 511.532M91.6777 482.68L124.904 482.556M91.6777 482.68L74.4448 454.074M91.6777 482.68L74.4448 511.532M91.6777 482.68L58.4518 482.556M108.911 511.532L91.7041 540.014M108.911 511.532H141.517M91.7041 540.014L108.043 568H141.424L125.4 540.014M91.7041 540.014H125.4M125.4 540.014L141.517 511.532M141.517 511.532L124.904 482.556M124.904 482.556L141.517 454.074M141.517 454.074L125.028 425.345M125.028 425.345L141.498 396.988M141.498 396.988L125.152 368.011M125.152 368.011L141.487 339.406M141.487 339.406L125.152 310.924M125.152 310.924L141.393 282.938M207.72 282.938L191.231 310.057M191.231 310.057L208.464 339.406M191.231 310.057L224.705 310.924M191.231 310.057L174.742 282.938M191.231 310.057L173.999 339.406M191.231 310.057L157.758 310.924M208.464 339.406L191.231 368.382M208.464 339.406H241.041M191.231 368.382L208.464 396.988M191.231 368.382L224.705 368.011M191.231 368.382L173.999 339.406M191.231 368.382L173.999 396.988M191.231 368.382L157.758 368.011M208.464 396.988L191.231 425.469M208.464 396.988H241.052M191.231 425.469L208.464 454.074M191.231 425.469L224.581 425.345M191.231 425.469L173.999 396.988M191.231 425.469L173.999 454.074M191.231 425.469L157.882 425.345M208.464 454.074L191.231 482.68M208.464 454.074H241.07M191.231 482.68L208.464 511.532M191.231 482.68L224.457 482.556M191.231 482.68L173.999 454.074M191.231 482.68L173.999 511.532M191.231 482.68L158.005 482.556M208.464 511.532L191.258 540.014M208.464 511.532H241.07M191.258 540.014L207.596 568H240.978L224.953 540.014M191.258 540.014H224.953M224.953 540.014L241.07 511.532M241.07 511.532L224.457 482.556M224.457 482.556L241.07 454.074M241.07 454.074L224.581 425.345M224.581 425.345L241.052 396.988M241.052 396.988L224.705 368.011M224.705 368.011L241.041 339.406M241.041 339.406L224.705 310.924M224.705 310.924L240.946 282.938M307.274 282.938L290.785 310.057M290.785 310.057L308.018 339.406M290.785 310.057L324.259 310.924M290.785 310.057L274.296 282.938M290.785 310.057L273.552 339.406M290.785 310.057L257.311 310.924M308.018 339.406L290.785 368.382M308.018 339.406H340.595M290.785 368.382L308.018 396.988M290.785 368.382L324.259 368.011M290.785 368.382L273.552 339.406M290.785 368.382L273.552 396.988M290.785 368.382L257.311 368.011M308.018 396.988L290.785 425.469M308.018 396.988H340.606M290.785 425.469L308.018 454.074M290.785 425.469L324.135 425.345M290.785 425.469L273.552 396.988M290.785 425.469L273.552 454.074M290.785 425.469L257.435 425.345M308.018 454.074L290.785 482.68M308.018 454.074H340.624M290.785 482.68L308.018 511.532M290.785 482.68L324.011 482.556M290.785 482.68L273.552 454.074M290.785 482.68L273.552 511.532M290.785 482.68L257.559 482.556M308.018 511.532L290.812 540.014M308.018 511.532H340.624M290.812 540.014L307.15 568H340.532L324.507 540.014M290.812 540.014H324.507M324.507 540.014L340.624 511.532M340.624 511.532L324.011 482.556M324.011 482.556L340.624 454.074M340.624 454.074L324.135 425.345M324.135 425.345L340.606 396.988M340.606 396.988L324.259 368.011M324.259 368.011L340.595 339.406M340.595 339.406L324.259 310.924M324.259 310.924L340.5 282.938M406.828 282.938L390.339 310.057M390.339 310.057L407.572 339.406M390.339 310.057L423.813 310.924M390.339 310.057L373.85 282.938M390.339 310.057L373.106 339.406M390.339 310.057L356.865 310.924M407.572 339.406L390.339 368.382M407.572 339.406H440.148M390.339 368.382L407.572 396.988M390.339 368.382L423.813 368.011M390.339 368.382L373.106 339.406M390.339 368.382L373.106 396.988M390.339 368.382L356.865 368.011M407.572 396.988L390.339 425.469M407.572 396.988H440.159M390.339 425.469L407.572 454.074M390.339 425.469L423.689 425.345M390.339 425.469L373.106 396.988M390.339 425.469L373.106 454.074M390.339 425.469L356.989 425.345M407.572 454.074L390.339 482.68M407.572 454.074H440.178M390.339 482.68L407.572 511.532M390.339 482.68L423.565 482.556M390.339 482.68L373.106 454.074M390.339 482.68L373.106 511.532M390.339 482.68L357.113 482.556M407.572 511.532L390.365 540.014M407.572 511.532H440.178M390.365 540.014L406.704 568H440.086L424.061 540.014M390.365 540.014H424.061M424.061 540.014L440.178 511.532M440.178 511.532L423.565 482.556M423.565 482.556L440.178 454.074M440.178 454.074L423.689 425.345M423.689 425.345L440.159 396.988M440.159 396.988L423.813 368.011M423.813 368.011L440.148 339.406M440.148 339.406L423.813 310.924M423.813 310.924L440.054 282.938M506.381 282.938L489.893 310.057M489.893 310.057L507.125 339.406M489.893 310.057L523.366 310.924M489.893 310.057L473.404 282.938M489.893 310.057L472.66 339.406M489.893 310.057L456.419 310.924M507.125 339.406L489.893 368.382M507.125 339.406H539.702M489.893 368.382L507.125 396.988M489.893 368.382L523.366 368.011M489.893 368.382L472.66 339.406M489.893 368.382L472.66 396.988M489.893 368.382L456.419 368.011M507.125 396.988L489.893 425.469M507.125 396.988H539.713M489.893 425.469L507.125 454.074M489.893 425.469L523.242 425.345M489.893 425.469L472.66 396.988M489.893 425.469L472.66 454.074M489.893 425.469L456.543 425.345M507.125 454.074L489.893 482.68M507.125 454.074H539.731M489.893 482.68L507.125 511.532M489.893 482.68L523.118 482.556M489.893 482.68L472.66 454.074M489.893 482.68L472.66 511.532M489.893 482.68L456.667 482.556M507.125 511.532L489.919 540.014M507.125 511.532H539.731M489.919 540.014L506.258 568H539.639L523.614 540.014M489.919 540.014H523.614M523.614 540.014L539.731 511.532M539.731 511.532L523.118 482.556M523.118 482.556L539.731 454.074M539.731 454.074L523.242 425.345M523.242 425.345L539.713 396.988M539.713 396.988L523.366 368.011M523.366 368.011L539.702 339.406M539.702 339.406L523.366 310.924M523.366 310.924L539.607 282.938M605.935 282.938L589.446 310.057M589.446 310.057L606.679 339.406M589.446 310.057L622.92 310.924M589.446 310.057L572.957 282.938M589.446 310.057L572.213 339.406M589.446 310.057L555.972 310.924M606.679 339.406L589.446 368.382M606.679 339.406H639.256M589.446 368.382L606.679 396.988M589.446 368.382L622.92 368.011M589.446 368.382L572.213 339.406M589.446 368.382L572.213 396.988M589.446 368.382L555.972 368.011M606.679 396.988L589.446 425.469M606.679 396.988H639.267M589.446 425.469L606.679 454.074M589.446 425.469L622.796 425.345M589.446 425.469L572.213 396.988M589.446 425.469L572.213 454.074M589.446 425.469L556.096 425.345M606.679 454.074L589.446 482.68M606.679 454.074H639.285M589.446 482.68L606.679 511.532M589.446 482.68L622.672 482.556M589.446 482.68L572.213 454.074M589.446 482.68L572.213 511.532M589.446 482.68L556.22 482.556M606.679 511.532L589.473 540.014M606.679 511.532H639.285M589.473 540.014L605.811 568H639.193L623.168 540.014M589.473 540.014H623.168M623.168 540.014L639.285 511.532M639.285 511.532L622.672 482.556M622.672 482.556L639.285 454.074M639.285 454.074L622.796 425.345M622.796 425.345L639.267 396.988M639.267 396.988L622.92 368.011M622.92 368.011L639.256 339.406M639.256 339.406L622.92 310.924M622.92 310.924L639.161 282.938M74.4448 339.406H41.8683M74.4448 396.988H41.8571M74.4448 454.074H41.8388M74.4448 511.532L91.6512 540.014M74.4448 511.532H41.8388M91.6512 540.014L75.3127 568H41.9309L57.9559 540.014M91.6512 540.014H57.9559M57.9559 540.014L41.8388 511.532M41.8388 511.532L58.4518 482.556M58.4518 482.556L41.8388 454.074M41.8388 454.074L58.3278 425.345M58.3278 425.345L41.8571 396.988M41.8571 396.988L58.2038 368.011M58.2038 368.011L41.8683 339.406M41.8683 339.406L58.2038 310.924M58.2038 310.924L41.9628 282.938M173.999 339.406H141.422M173.999 396.988H141.411M173.999 454.074H141.393M173.999 511.532L191.205 540.014M173.999 511.532H141.393M191.205 540.014L174.866 568H141.485L157.51 540.014M191.205 540.014H157.51M157.51 540.014L141.393 511.532M141.393 511.532L158.005 482.556M158.005 482.556L141.393 454.074M141.393 454.074L157.882 425.345M157.882 425.345L141.411 396.988M141.411 396.988L157.758 368.011M157.758 368.011L141.422 339.406M141.422 339.406L157.758 310.924M157.758 310.924L141.517 282.938M273.552 339.406H240.976M273.552 396.988H240.965M273.552 454.074H240.946M273.552 511.532L290.759 540.014M273.552 511.532H240.946M290.759 540.014L274.42 568H241.038L257.063 540.014M290.759 540.014H257.063M257.063 540.014L240.946 511.532M240.946 511.532L257.559 482.556M257.559 482.556L240.946 454.074M240.946 454.074L257.435 425.345M257.435 425.345L240.965 396.988M240.965 396.988L257.311 368.011M257.311 368.011L240.976 339.406M240.976 339.406L257.311 310.924M257.311 310.924L241.07 282.938M373.106 339.406H340.529M373.106 396.988H340.518M373.106 454.074H340.5M373.106 511.532L390.312 540.014M373.106 511.532H340.5M390.312 540.014L373.974 568H340.592L356.617 540.014M390.312 540.014H356.617M356.617 540.014L340.5 511.532M340.5 511.532L357.113 482.556M357.113 482.556L340.5 454.074M340.5 454.074L356.989 425.345M356.989 425.345L340.518 396.988M340.518 396.988L356.865 368.011M356.865 368.011L340.529 339.406M340.529 339.406L356.865 310.924M356.865 310.924L340.624 282.938M472.66 339.406H440.083M472.66 396.988H440.072M472.66 454.074H440.054M472.66 511.532L489.866 540.014M472.66 511.532H440.054M489.866 540.014L473.528 568H440.146L456.171 540.014M489.866 540.014H456.171M456.171 540.014L440.054 511.532M440.054 511.532L456.667 482.556M456.667 482.556L440.054 454.074M440.054 454.074L456.543 425.345M456.543 425.345L440.072 396.988M440.072 396.988L456.419 368.011M456.419 368.011L440.083 339.406M440.083 339.406L456.419 310.924M456.419 310.924L440.178 282.938M572.213 339.406H539.637M572.213 396.988H539.626M572.213 454.074H539.607M572.213 511.532L589.42 540.014M572.213 511.532H539.607M589.42 540.014L573.081 568H539.699L555.724 540.014M589.42 540.014H555.724M555.724 540.014L539.607 511.532M539.607 511.532L556.22 482.556M556.22 482.556L539.607 454.074M539.607 454.074L556.096 425.345M556.096 425.345L539.626 396.988M539.626 396.988L555.972 368.011M555.972 368.011L539.637 339.406M539.637 339.406L555.972 310.924M555.972 310.924L539.731 282.938M672.511 282.938L689 310.057M689 310.057L671.767 339.406M689 310.057L655.526 310.924M671.767 339.406L689 368.382M671.767 339.406H639.191M689 368.382L671.767 396.988M689 368.382L655.526 368.011M671.767 396.988L689 425.469M671.767 396.988H639.179M689 425.469L671.767 454.074M689 425.469L655.65 425.345M671.767 454.074L689 482.68M671.767 454.074H639.161M689 482.68L671.767 511.532M689 482.68L655.774 482.556M671.767 511.532L688.974 540.014M671.767 511.532H639.161M688.974 540.014L672.635 568H639.253L655.278 540.014M688.974 540.014H655.278M655.278 540.014L639.161 511.532M639.161 511.532L655.774 482.556M655.774 482.556L639.161 454.074M639.161 454.074L655.65 425.345M655.65 425.345L639.179 396.988M639.179 396.988L655.526 368.011M655.526 368.011L639.191 339.406M639.191 339.406L655.526 310.924M655.526 310.924L639.285 282.938M91.6777 25.1193L75.1887 -2H41.9628L58.2038 25.9861M91.6777 25.1193L74.4448 54.4675M91.6777 25.1193L58.2038 25.9861M91.6777 25.1193L108.167 -2H141.393L125.152 25.9861M91.6777 25.1193L108.911 54.4675M91.6777 25.1193L125.152 25.9861M74.4448 54.4675L91.6777 83.4443M74.4448 54.4675H41.8683M91.6777 83.4443L74.4448 112.05M91.6777 83.4443L58.2038 83.0728M91.6777 83.4443L108.911 54.4675M91.6777 83.4443L108.911 112.05M91.6777 83.4443L125.152 83.0728M74.4448 112.05L91.6777 140.531M74.4448 112.05H41.8571M91.6777 140.531L74.4448 169.136M91.6777 140.531L58.3278 140.407M91.6777 140.531L108.911 112.05M91.6777 140.531L108.911 169.136M91.6777 140.531L125.028 140.407M74.4448 169.136L91.6777 197.741M74.4448 169.136H41.8388M91.6777 197.741L74.4448 226.594M91.6777 197.741L58.4518 197.618M91.6777 197.741L108.911 169.136M91.6777 197.741L108.911 226.594M91.6777 197.741L124.904 197.618M74.4448 226.594L91.6512 255.076M74.4448 226.594H41.8388M91.6512 255.076L75.3127 283.062H41.9309L57.9559 255.076M91.6512 255.076H57.9559M57.9559 255.076L41.8388 226.594M41.8388 226.594L58.4518 197.618M41.8388 226.594L25.7218 255.076M41.8388 226.594L25.2259 197.618M41.8388 226.594H9.23285M58.4518 197.618L41.8388 169.136M41.8388 169.136L58.3278 140.407M41.8388 169.136L25.2259 197.618M41.8388 169.136L25.3499 140.407M41.8388 169.136H9.23285M58.3278 140.407L41.8571 112.05M41.8571 112.05L58.2038 83.0728M58.2038 83.0728L41.8683 54.4675M41.8683 54.4675L58.2038 25.9861M191.355 25.1193L174.866 -2H141.64L157.882 25.9861M191.355 25.1193L174.123 54.4675M191.355 25.1193L157.882 25.9861M191.355 25.1193L207.844 -2H241.07L224.829 25.9861M191.355 25.1193L208.588 54.4675M191.355 25.1193L224.829 25.9861M174.123 54.4675L191.355 83.4443M174.123 54.4675H141.546M191.355 83.4443L174.123 112.05M191.355 83.4443L157.882 83.0728M191.355 83.4443L208.588 54.4675M191.355 83.4443L208.588 112.05M191.355 83.4443L224.829 83.0728M174.123 112.05L191.355 140.531M174.123 112.05H141.535M191.355 140.531L174.123 169.136M191.355 140.531L158.005 140.407M191.355 140.531L208.588 112.05M191.355 140.531L208.588 169.136M191.355 140.531L224.705 140.407M174.123 169.136L191.355 197.741M174.123 169.136H141.517M191.355 197.741L174.123 226.594M191.355 197.741L158.129 197.618M191.355 197.741L208.588 169.136M191.355 197.741L208.588 226.594M191.355 197.741L224.581 197.618M174.123 226.594L191.329 255.076M174.123 226.594H141.517M191.329 255.076L174.99 283.062H141.609L157.634 255.076M191.329 255.076H157.634M157.634 255.076L141.517 226.594M141.517 226.594L158.129 197.618M141.517 226.594L125.4 255.076M141.517 226.594L124.904 197.618M141.517 226.594H108.911M158.129 197.618L141.517 169.136M141.517 169.136L158.005 140.407M141.517 169.136L124.904 197.618M141.517 169.136L125.028 140.407M141.517 169.136H108.911M158.005 140.407L141.535 112.05M141.535 112.05L157.882 83.0728M157.882 83.0728L141.546 54.4675M141.546 54.4675L157.882 25.9861M291.033 25.1193L274.544 -2H241.318L257.559 25.9861M291.033 25.1193L273.8 54.4675M291.033 25.1193L257.559 25.9861M291.033 25.1193L307.522 -2H340.748L324.507 25.9861M291.033 25.1193L308.266 54.4675M291.033 25.1193L324.507 25.9861M273.8 54.4675L291.033 83.4443M273.8 54.4675H241.224M291.033 83.4443L273.8 112.05M291.033 83.4443L257.559 83.0728M291.033 83.4443L308.266 54.4675M291.033 83.4443L308.266 112.05M291.033 83.4443L324.507 83.0728M273.8 112.05L291.033 140.531M273.8 112.05H241.212M291.033 140.531L273.8 169.136M291.033 140.531L257.683 140.407M291.033 140.531L308.266 112.05M291.033 140.531L308.266 169.136M291.033 140.531L324.383 140.407M273.8 169.136L291.033 197.741M273.8 169.136H241.194M291.033 197.741L273.8 226.594M291.033 197.741L257.807 197.618M291.033 197.741L308.266 169.136M291.033 197.741L308.266 226.594M291.033 197.741L324.259 197.618M273.8 226.594L291.007 255.076M273.8 226.594H241.194M291.007 255.076L274.668 283.062H241.286L257.311 255.076M291.007 255.076H257.311M257.311 255.076L241.194 226.594M241.194 226.594L257.807 197.618M241.194 226.594L225.077 255.076M241.194 226.594L224.581 197.618M241.194 226.594H208.588M257.807 197.618L241.194 169.136M241.194 169.136L257.683 140.407M241.194 169.136L224.581 197.618M241.194 169.136L224.705 140.407M241.194 169.136H208.588M257.683 140.407L241.212 112.05M241.212 112.05L257.559 83.0728M257.559 83.0728L241.224 54.4675M241.224 54.4675L257.559 25.9861M390.711 25.1193L374.222 -2H340.996L357.237 25.9861M390.711 25.1193L373.478 54.4675M390.711 25.1193L357.237 25.9861M390.711 25.1193L407.2 -2H440.426L424.185 25.9861M390.711 25.1193L407.944 54.4675M390.711 25.1193L424.185 25.9861M373.478 54.4675L390.711 83.4443M373.478 54.4675H340.901M390.711 83.4443L373.478 112.05M390.711 83.4443L357.237 83.0728M390.711 83.4443L407.944 54.4675M390.711 83.4443L407.944 112.05M390.711 83.4443L424.185 83.0728M373.478 112.05L390.711 140.531M373.478 112.05H340.89M390.711 140.531L373.478 169.136M390.711 140.531L357.361 140.407M390.711 140.531L407.944 112.05M390.711 140.531L407.944 169.136M390.711 140.531L424.061 140.407M373.478 169.136L390.711 197.741M373.478 169.136H340.872M390.711 197.741L373.478 226.594M390.711 197.741L357.485 197.618M390.711 197.741L407.944 169.136M390.711 197.741L407.944 226.594M390.711 197.741L423.937 197.618M373.478 226.594L390.684 255.076M373.478 226.594H340.872M390.684 255.076L374.346 283.062H340.964L356.989 255.076M390.684 255.076H356.989M356.989 255.076L340.872 226.594M340.872 226.594L357.485 197.618M340.872 226.594L324.755 255.076M340.872 226.594L324.259 197.618M340.872 226.594H308.266M357.485 197.618L340.872 169.136M340.872 169.136L357.361 140.407M340.872 169.136L324.259 197.618M340.872 169.136L324.383 140.407M340.872 169.136H308.266M357.361 140.407L340.89 112.05M340.89 112.05L357.237 83.0728M357.237 83.0728L340.901 54.4675M340.901 54.4675L357.237 25.9861M489.645 25.1193L473.156 -2H439.93L456.171 25.9861M489.645 25.1193L472.412 54.4675M489.645 25.1193L456.171 25.9861M472.412 54.4675L489.645 83.4443M472.412 54.4675H439.835M489.645 83.4443L472.412 112.05M489.645 83.4443L456.171 83.0728M472.412 112.05L489.645 140.531M472.412 112.05H439.824M489.645 140.531L472.412 169.136M489.645 140.531L456.295 140.407M472.412 169.136L489.645 197.741M472.412 169.136H439.806M489.645 197.741L472.412 226.594M489.645 197.741L456.419 197.618M472.412 226.594L489.618 255.076M472.412 226.594H439.806M489.618 255.076L473.28 283.062H439.898L455.923 255.076M489.618 255.076H455.923M455.923 255.076L439.806 226.594M439.806 226.594L456.419 197.618M456.419 197.618L439.806 169.136M439.806 169.136L456.295 140.407M456.295 140.407L439.824 112.05M439.824 112.05L456.171 83.0728M456.171 83.0728L439.835 54.4675M439.835 54.4675L456.171 25.9861M588.578 25.1193L572.089 -2H538.864L555.105 25.9861M588.578 25.1193L571.346 54.4675M588.578 25.1193L555.105 25.9861M571.346 54.4675L588.578 83.4443M571.346 54.4675H538.769M588.578 83.4443L571.346 112.05M588.578 83.4443L555.105 83.0728M571.346 112.05L588.578 140.531M571.346 112.05H538.758M588.578 140.531L571.346 169.136M588.578 140.531L555.229 140.407M571.346 169.136L588.578 197.741M571.346 169.136H538.74M588.578 197.741L571.346 226.594M588.578 197.741L555.352 197.618M571.346 226.594L588.552 255.076M571.346 226.594H538.74M588.552 255.076L572.213 283.062H538.832L554.857 255.076M588.552 255.076H554.857M554.857 255.076L538.74 226.594M538.74 226.594L555.352 197.618M555.352 197.618L538.74 169.136M538.74 169.136L555.229 140.407M555.229 140.407L538.758 112.05M538.758 112.05L555.105 83.0728M555.105 83.0728L538.769 54.4675M538.769 54.4675L555.105 25.9861M687.512 25.1193L671.023 -2H637.797L654.038 25.9861M687.512 25.1193L670.279 54.4675M687.512 25.1193L654.038 25.9861M670.279 54.4675L687.512 83.4443M670.279 54.4675H637.703M687.512 83.4443L670.279 112.05M687.512 83.4443L654.038 83.0728M670.279 112.05L687.512 140.531M670.279 112.05H637.692M687.512 140.531L670.279 169.136M687.512 140.531L654.162 140.407M670.279 169.136L687.512 197.741M670.279 169.136H637.673M687.512 197.741L670.279 226.594M687.512 197.741L654.286 197.618M670.279 226.594L687.486 255.076M670.279 226.594H637.673M687.486 255.076L671.147 283.062H637.765L653.79 255.076M687.486 255.076H653.79M653.79 255.076L637.673 226.594M637.673 226.594L654.286 197.618M654.286 197.618L637.673 169.136M637.673 169.136L654.162 140.407M654.162 140.407L637.692 112.05M637.692 112.05L654.038 83.0728M654.038 83.0728L637.703 54.4675M637.703 54.4675L654.038 25.9861M108.911 54.4675H141.487M108.911 112.05H141.498M108.911 226.594L91.7041 255.076M91.7041 255.076L108.043 283.062H141.424L125.4 255.076M91.7041 255.076H125.4M125.028 140.407L141.498 112.05M141.498 112.05L125.152 83.0728M125.152 83.0728L141.487 54.4675M141.487 54.4675L125.152 25.9861M-8 25.1193L8.48899 -2H41.7149L25.4739 25.9861M-8 25.1193L9.23285 54.4675M-8 25.1193L25.4739 25.9861M9.23285 54.4675L-8 83.4443M9.23285 54.4675H41.8094M-8 83.4443L9.23285 112.05M-8 83.4443L25.4739 83.0728M9.23285 112.05L-8 140.531M9.23285 112.05H41.8206M-8 140.531L9.23285 169.136M-8 140.531L25.3499 140.407M9.23285 169.136L-8 197.741M-8 197.741L9.23285 226.594M-8 197.741L25.2259 197.618M9.23285 226.594L-7.97355 255.076M-7.97355 255.076L8.36501 283.062H41.7467L25.7218 255.076M-7.97355 255.076H25.7218M25.3499 140.407L41.8206 112.05M41.8206 112.05L25.4739 83.0728M25.4739 83.0728L41.8094 54.4675M41.8094 54.4675L25.4739 25.9861M208.588 54.4675H241.165M208.588 112.05H241.176M208.588 226.594L191.382 255.076M191.382 255.076L207.72 283.062H241.102L225.077 255.076M191.382 255.076H225.077M224.705 140.407L241.176 112.05M241.176 112.05L224.829 83.0728M224.829 83.0728L241.165 54.4675M241.165 54.4675L224.829 25.9861M308.266 54.4675H340.842M308.266 112.05H340.854M308.266 226.594L291.06 255.076M291.06 255.076L307.398 283.062H340.78L324.755 255.076M291.06 255.076H324.755M324.383 140.407L340.854 112.05M340.854 112.05L324.507 83.0728M324.507 83.0728L340.842 54.4675M340.842 54.4675L324.507 25.9861M407.944 54.4675H440.52M407.944 112.05H440.531M407.944 169.136H440.55M407.944 226.594L390.737 255.076M407.944 226.594H440.55M390.737 255.076L407.076 283.062H440.457L424.433 255.076M390.737 255.076H424.433M424.433 255.076L440.55 226.594M440.55 226.594L423.937 197.618M423.937 197.618L440.55 169.136M440.55 169.136L424.061 140.407M424.061 140.407L440.531 112.05M440.531 112.05L424.185 83.0728M424.185 83.0728L440.52 54.4675M440.52 54.4675L424.185 25.9861M490.388 25.1193L506.877 -2H540.103L523.862 25.9861M490.388 25.1193L507.621 54.4675M490.388 25.1193L523.862 25.9861M507.621 54.4675L490.388 83.4443M507.621 54.4675H540.198M490.388 83.4443L507.621 112.05M490.388 83.4443L523.862 83.0728M507.621 112.05L490.388 140.531M507.621 112.05H540.209M490.388 140.531L507.621 169.136M490.388 140.531L523.738 140.407M507.621 169.136L490.388 197.741M507.621 169.136H540.227M490.388 197.741L507.621 226.594M490.388 197.741L523.614 197.618M507.621 226.594L490.415 255.076M507.621 226.594H540.227M490.415 255.076L506.753 283.062H540.135L524.11 255.076M490.415 255.076H524.11M524.11 255.076L540.227 226.594M540.227 226.594L523.614 197.618M523.614 197.618L540.227 169.136M540.227 169.136L523.738 140.407M523.738 140.407L540.209 112.05M540.209 112.05L523.862 83.0728M523.862 83.0728L540.198 54.4675M540.198 54.4675L523.862 25.9861M590.066 25.1193L606.555 -2H639.781L623.54 25.9861M590.066 25.1193L607.299 54.4675M590.066 25.1193L623.54 25.9861M607.299 54.4675L590.066 83.4443M607.299 54.4675H639.876M590.066 83.4443L607.299 112.05M590.066 83.4443L623.54 83.0728M607.299 112.05L590.066 140.531M607.299 112.05H639.887M590.066 140.531L607.299 169.136M590.066 140.531L623.416 140.407M607.299 169.136L590.066 197.741M607.299 169.136H639.905M590.066 197.741L607.299 226.594M590.066 197.741L623.292 197.618M607.299 226.594L590.093 255.076M607.299 226.594H639.905M590.093 255.076L606.431 283.062H639.813L623.788 255.076M590.093 255.076H623.788M623.788 255.076L639.905 226.594M639.905 226.594L623.292 197.618M623.292 197.618L639.905 169.136M639.905 169.136L623.416 140.407M623.416 140.407L639.887 112.05M639.887 112.05L623.54 83.0728M623.54 83.0728L639.876 54.4675M639.876 54.4675L623.54 25.9861" stroke="#F0F0F0"/>
<path d="M8.61296 852.938L-7.87602 880.057M-7.87602 880.057L9.35683 909.406M-7.87602 880.057L25.5978 880.924M9.35683 909.406L-7.87602 938.382M9.35683 909.406H41.9334M-7.87602 938.382L9.35683 966.988M-7.87602 938.382L25.5978 938.011M9.35683 966.988L-7.87602 995.469M9.35683 966.988H41.9446M-7.87602 995.469L9.35683 1024.07M-7.87602 995.469L25.4739 995.345M9.35683 1024.07L-7.87602 1052.68M9.35683 1024.07H41.9628M-7.87602 1052.68L9.35683 1081.53M-7.87602 1052.68L25.3499 1052.56M9.35683 1081.53L-7.84957 1110.01M9.35683 1081.53H41.9628M-7.84957 1110.01L8.48899 1138H41.8707L25.8458 1110.01M-7.84957 1110.01H25.8458M25.8458 1110.01L41.9628 1081.53M41.9628 1081.53L25.3499 1052.56M25.3499 1052.56L41.9628 1024.07M41.9628 1024.07L25.4739 995.345M25.4739 995.345L41.9446 966.988M41.9446 966.988L25.5978 938.011M25.5978 938.011L41.9334 909.406M41.9334 909.406L25.5978 880.924M25.5978 880.924L41.8389 852.938M108.167 852.938L91.6777 880.057M91.6777 880.057L108.911 909.406M91.6777 880.057L125.152 880.924M91.6777 880.057L75.1887 852.938M91.6777 880.057L74.4448 909.406M91.6777 880.057L58.2038 880.924M108.911 909.406L91.6777 938.382M108.911 909.406H141.487M91.6777 938.382L108.911 966.988M91.6777 938.382L125.152 938.011M91.6777 938.382L74.4448 909.406M91.6777 938.382L74.4448 966.988M91.6777 938.382L58.2038 938.011M108.911 966.988L91.6777 995.469M108.911 966.988H141.498M91.6777 995.469L108.911 1024.07M91.6777 995.469L125.028 995.345M91.6777 995.469L74.4448 966.988M91.6777 995.469L74.4448 1024.07M91.6777 995.469L58.3278 995.345M108.911 1024.07L91.6777 1052.68M108.911 1024.07H141.517M91.6777 1052.68L108.911 1081.53M91.6777 1052.68L124.904 1052.56M91.6777 1052.68L74.4448 1024.07M91.6777 1052.68L74.4448 1081.53M91.6777 1052.68L58.4518 1052.56M108.911 1081.53L91.7041 1110.01M108.911 1081.53H141.517M91.7041 1110.01L108.043 1138H141.424L125.4 1110.01M91.7041 1110.01H125.4M125.4 1110.01L141.517 1081.53M141.517 1081.53L124.904 1052.56M124.904 1052.56L141.517 1024.07M141.517 1024.07L125.028 995.345M125.028 995.345L141.498 966.988M141.498 966.988L125.152 938.011M125.152 938.011L141.487 909.406M141.487 909.406L125.152 880.924M125.152 880.924L141.393 852.938M207.72 852.938L191.231 880.057M191.231 880.057L208.464 909.406M191.231 880.057L224.705 880.924M191.231 880.057L174.742 852.938M191.231 880.057L173.999 909.406M191.231 880.057L157.758 880.924M208.464 909.406L191.231 938.382M208.464 909.406H241.041M191.231 938.382L208.464 966.988M191.231 938.382L224.705 938.011M191.231 938.382L173.999 909.406M191.231 938.382L173.999 966.988M191.231 938.382L157.758 938.011M208.464 966.988L191.231 995.469M208.464 966.988H241.052M191.231 995.469L208.464 1024.07M191.231 995.469L224.581 995.345M191.231 995.469L173.999 966.988M191.231 995.469L173.999 1024.07M191.231 995.469L157.882 995.345M208.464 1024.07L191.231 1052.68M208.464 1024.07H241.07M191.231 1052.68L208.464 1081.53M191.231 1052.68L224.457 1052.56M191.231 1052.68L173.999 1024.07M191.231 1052.68L173.999 1081.53M191.231 1052.68L158.005 1052.56M208.464 1081.53L191.258 1110.01M208.464 1081.53H241.07M191.258 1110.01L207.596 1138H240.978L224.953 1110.01M191.258 1110.01H224.953M224.953 1110.01L241.07 1081.53M241.07 1081.53L224.457 1052.56M224.457 1052.56L241.07 1024.07M241.07 1024.07L224.581 995.345M224.581 995.345L241.052 966.988M241.052 966.988L224.705 938.011M224.705 938.011L241.041 909.406M241.041 909.406L224.705 880.924M224.705 880.924L240.946 852.938M307.274 852.938L290.785 880.057M290.785 880.057L308.018 909.406M290.785 880.057L324.259 880.924M290.785 880.057L274.296 852.938M290.785 880.057L273.552 909.406M290.785 880.057L257.311 880.924M308.018 909.406L290.785 938.382M308.018 909.406H340.595M290.785 938.382L308.018 966.988M290.785 938.382L324.259 938.011M290.785 938.382L273.552 909.406M290.785 938.382L273.552 966.988M290.785 938.382L257.311 938.011M308.018 966.988L290.785 995.469M308.018 966.988H340.606M290.785 995.469L308.018 1024.07M290.785 995.469L324.135 995.345M290.785 995.469L273.552 966.988M290.785 995.469L273.552 1024.07M290.785 995.469L257.435 995.345M308.018 1024.07L290.785 1052.68M308.018 1024.07H340.624M290.785 1052.68L308.018 1081.53M290.785 1052.68L324.011 1052.56M290.785 1052.68L273.552 1024.07M290.785 1052.68L273.552 1081.53M290.785 1052.68L257.559 1052.56M308.018 1081.53L290.812 1110.01M308.018 1081.53H340.624M290.812 1110.01L307.15 1138H340.532L324.507 1110.01M290.812 1110.01H324.507M324.507 1110.01L340.624 1081.53M340.624 1081.53L324.011 1052.56M324.011 1052.56L340.624 1024.07M340.624 1024.07L324.135 995.345M324.135 995.345L340.606 966.988M340.606 966.988L324.259 938.011M324.259 938.011L340.595 909.406M340.595 909.406L324.259 880.924M324.259 880.924L340.5 852.938M406.828 852.938L390.339 880.057M390.339 880.057L407.572 909.406M390.339 880.057L423.813 880.924M390.339 880.057L373.85 852.938M390.339 880.057L373.106 909.406M390.339 880.057L356.865 880.924M407.572 909.406L390.339 938.382M407.572 909.406H440.148M390.339 938.382L407.572 966.988M390.339 938.382L423.813 938.011M390.339 938.382L373.106 909.406M390.339 938.382L373.106 966.988M390.339 938.382L356.865 938.011M407.572 966.988L390.339 995.469M407.572 966.988H440.159M390.339 995.469L407.572 1024.07M390.339 995.469L423.689 995.345M390.339 995.469L373.106 966.988M390.339 995.469L373.106 1024.07M390.339 995.469L356.989 995.345M407.572 1024.07L390.339 1052.68M407.572 1024.07H440.178M390.339 1052.68L407.572 1081.53M390.339 1052.68L423.565 1052.56M390.339 1052.68L373.106 1024.07M390.339 1052.68L373.106 1081.53M390.339 1052.68L357.113 1052.56M407.572 1081.53L390.365 1110.01M407.572 1081.53H440.178M390.365 1110.01L406.704 1138H440.086L424.061 1110.01M390.365 1110.01H424.061M424.061 1110.01L440.178 1081.53M440.178 1081.53L423.565 1052.56M423.565 1052.56L440.178 1024.07M440.178 1024.07L423.689 995.345M423.689 995.345L440.159 966.988M440.159 966.988L423.813 938.011M423.813 938.011L440.148 909.406M440.148 909.406L423.813 880.924M423.813 880.924L440.054 852.938M506.381 852.938L489.893 880.057M489.893 880.057L507.125 909.406M489.893 880.057L523.366 880.924M489.893 880.057L473.404 852.938M489.893 880.057L472.66 909.406M489.893 880.057L456.419 880.924M507.125 909.406L489.893 938.382M507.125 909.406H539.702M489.893 938.382L507.125 966.988M489.893 938.382L523.366 938.011M489.893 938.382L472.66 909.406M489.893 938.382L472.66 966.988M489.893 938.382L456.419 938.011M507.125 966.988L489.893 995.469M507.125 966.988H539.713M489.893 995.469L507.125 1024.07M489.893 995.469L523.242 995.345M489.893 995.469L472.66 966.988M489.893 995.469L472.66 1024.07M489.893 995.469L456.543 995.345M507.125 1024.07L489.893 1052.68M507.125 1024.07H539.731M489.893 1052.68L507.125 1081.53M489.893 1052.68L523.118 1052.56M489.893 1052.68L472.66 1024.07M489.893 1052.68L472.66 1081.53M489.893 1052.68L456.667 1052.56M507.125 1081.53L489.919 1110.01M507.125 1081.53H539.731M489.919 1110.01L506.258 1138H539.639L523.614 1110.01M489.919 1110.01H523.614M523.614 1110.01L539.731 1081.53M539.731 1081.53L523.118 1052.56M523.118 1052.56L539.731 1024.07M539.731 1024.07L523.242 995.345M523.242 995.345L539.713 966.988M539.713 966.988L523.366 938.011M523.366 938.011L539.702 909.406M539.702 909.406L523.366 880.924M523.366 880.924L539.607 852.938M605.935 852.938L589.446 880.057M589.446 880.057L606.679 909.406M589.446 880.057L622.92 880.924M589.446 880.057L572.957 852.938M589.446 880.057L572.213 909.406M589.446 880.057L555.972 880.924M606.679 909.406L589.446 938.382M606.679 909.406H639.256M589.446 938.382L606.679 966.988M589.446 938.382L622.92 938.011M589.446 938.382L572.213 909.406M589.446 938.382L572.213 966.988M589.446 938.382L555.972 938.011M606.679 966.988L589.446 995.469M606.679 966.988H639.267M589.446 995.469L606.679 1024.07M589.446 995.469L622.796 995.345M589.446 995.469L572.213 966.988M589.446 995.469L572.213 1024.07M589.446 995.469L556.096 995.345M606.679 1024.07L589.446 1052.68M606.679 1024.07H639.285M589.446 1052.68L606.679 1081.53M589.446 1052.68L622.672 1052.56M589.446 1052.68L572.213 1024.07M589.446 1052.68L572.213 1081.53M589.446 1052.68L556.22 1052.56M606.679 1081.53L589.473 1110.01M606.679 1081.53H639.285M589.473 1110.01L605.811 1138H639.193L623.168 1110.01M589.473 1110.01H623.168M623.168 1110.01L639.285 1081.53M639.285 1081.53L622.672 1052.56M622.672 1052.56L639.285 1024.07M639.285 1024.07L622.796 995.345M622.796 995.345L639.267 966.988M639.267 966.988L622.92 938.011M622.92 938.011L639.256 909.406M639.256 909.406L622.92 880.924M622.92 880.924L639.161 852.938M74.4448 909.406H41.8683M74.4448 966.988H41.8571M74.4448 1024.07H41.8388M74.4448 1081.53L91.6512 1110.01M74.4448 1081.53H41.8388M91.6512 1110.01L75.3127 1138H41.9309L57.9559 1110.01M91.6512 1110.01H57.9559M57.9559 1110.01L41.8388 1081.53M41.8388 1081.53L58.4518 1052.56M58.4518 1052.56L41.8388 1024.07M41.8388 1024.07L58.3278 995.345M58.3278 995.345L41.8571 966.988M41.8571 966.988L58.2038 938.011M58.2038 938.011L41.8683 909.406M41.8683 909.406L58.2038 880.924M58.2038 880.924L41.9628 852.938M173.999 909.406H141.422M173.999 966.988H141.411M173.999 1024.07H141.393M173.999 1081.53L191.205 1110.01M173.999 1081.53H141.393M191.205 1110.01L174.866 1138H141.485L157.51 1110.01M191.205 1110.01H157.51M157.51 1110.01L141.393 1081.53M141.393 1081.53L158.005 1052.56M158.005 1052.56L141.393 1024.07M141.393 1024.07L157.882 995.345M157.882 995.345L141.411 966.988M141.411 966.988L157.758 938.011M157.758 938.011L141.422 909.406M141.422 909.406L157.758 880.924M157.758 880.924L141.517 852.938M273.552 909.406H240.976M273.552 966.988H240.965M273.552 1024.07H240.946M273.552 1081.53L290.759 1110.01M273.552 1081.53H240.946M290.759 1110.01L274.42 1138H241.038L257.063 1110.01M290.759 1110.01H257.063M257.063 1110.01L240.946 1081.53M240.946 1081.53L257.559 1052.56M257.559 1052.56L240.946 1024.07M240.946 1024.07L257.435 995.345M257.435 995.345L240.965 966.988M240.965 966.988L257.311 938.011M257.311 938.011L240.976 909.406M240.976 909.406L257.311 880.924M257.311 880.924L241.07 852.938M373.106 909.406H340.529M373.106 966.988H340.518M373.106 1024.07H340.5M373.106 1081.53L390.312 1110.01M373.106 1081.53H340.5M390.312 1110.01L373.974 1138H340.592L356.617 1110.01M390.312 1110.01H356.617M356.617 1110.01L340.5 1081.53M340.5 1081.53L357.113 1052.56M357.113 1052.56L340.5 1024.07M340.5 1024.07L356.989 995.345M356.989 995.345L340.518 966.988M340.518 966.988L356.865 938.011M356.865 938.011L340.529 909.406M340.529 909.406L356.865 880.924M356.865 880.924L340.624 852.938M472.66 909.406H440.083M472.66 966.988H440.072M472.66 1024.07H440.054M472.66 1081.53L489.866 1110.01M472.66 1081.53H440.054M489.866 1110.01L473.528 1138H440.146L456.171 1110.01M489.866 1110.01H456.171M456.171 1110.01L440.054 1081.53M440.054 1081.53L456.667 1052.56M456.667 1052.56L440.054 1024.07M440.054 1024.07L456.543 995.345M456.543 995.345L440.072 966.988M440.072 966.988L456.419 938.011M456.419 938.011L440.083 909.406M440.083 909.406L456.419 880.924M456.419 880.924L440.178 852.938M572.213 909.406H539.637M572.213 966.988H539.626M572.213 1024.07H539.607M572.213 1081.53L589.42 1110.01M572.213 1081.53H539.607M589.42 1110.01L573.081 1138H539.699L555.724 1110.01M589.42 1110.01H555.724M555.724 1110.01L539.607 1081.53M539.607 1081.53L556.22 1052.56M556.22 1052.56L539.607 1024.07M539.607 1024.07L556.096 995.345M556.096 995.345L539.626 966.988M539.626 966.988L555.972 938.011M555.972 938.011L539.637 909.406M539.637 909.406L555.972 880.924M555.972 880.924L539.731 852.938M672.511 852.938L689 880.057M689 880.057L671.767 909.406M689 880.057L655.526 880.924M671.767 909.406L689 938.382M671.767 909.406H639.191M689 938.382L671.767 966.988M689 938.382L655.526 938.011M671.767 966.988L689 995.469M671.767 966.988H639.179M689 995.469L671.767 1024.07M689 995.469L655.65 995.345M671.767 1024.07L689 1052.68M671.767 1024.07H639.161M689 1052.68L671.767 1081.53M689 1052.68L655.774 1052.56M671.767 1081.53L688.974 1110.01M671.767 1081.53H639.161M688.974 1110.01L672.635 1138H639.253L655.278 1110.01M688.974 1110.01H655.278M655.278 1110.01L639.161 1081.53M639.161 1081.53L655.774 1052.56M655.774 1052.56L639.161 1024.07M639.161 1024.07L655.65 995.345M655.65 995.345L639.179 966.988M639.179 966.988L655.526 938.011M655.526 938.011L639.191 909.406M639.191 909.406L655.526 880.924M655.526 880.924L639.285 852.938M91.6777 595.119L75.1887 568H41.9628L58.2038 595.986M91.6777 595.119L74.4448 624.468M91.6777 595.119L58.2038 595.986M91.6777 595.119L108.167 568H141.393L125.152 595.986M91.6777 595.119L108.911 624.468M91.6777 595.119L125.152 595.986M74.4448 624.468L91.6777 653.444M74.4448 624.468H41.8683M91.6777 653.444L74.4448 682.05M91.6777 653.444L58.2038 653.073M91.6777 653.444L108.911 624.468M91.6777 653.444L108.911 682.05M91.6777 653.444L125.152 653.073M74.4448 682.05L91.6777 710.531M74.4448 682.05H41.8571M91.6777 710.531L74.4448 739.136M91.6777 710.531L58.3278 710.407M91.6777 710.531L108.911 682.05M91.6777 710.531L108.911 739.136M91.6777 710.531L125.028 710.407M74.4448 739.136L91.6777 767.741M74.4448 739.136H41.8388M91.6777 767.741L74.4448 796.594M91.6777 767.741L58.4518 767.618M91.6777 767.741L108.911 739.136M91.6777 767.741L108.911 796.594M91.6777 767.741L124.904 767.618M74.4448 796.594L91.6512 825.076M74.4448 796.594H41.8388M91.6512 825.076L75.3127 853.062H41.9309L57.9559 825.076M91.6512 825.076H57.9559M57.9559 825.076L41.8388 796.594M41.8388 796.594L58.4518 767.618M41.8388 796.594L25.7218 825.076M41.8388 796.594L25.2259 767.618M41.8388 796.594H9.23285M58.4518 767.618L41.8388 739.136M41.8388 739.136L58.3278 710.407M41.8388 739.136L25.2259 767.618M41.8388 739.136L25.3499 710.407M41.8388 739.136H9.23285M58.3278 710.407L41.8571 682.05M41.8571 682.05L58.2038 653.073M58.2038 653.073L41.8683 624.468M41.8683 624.468L58.2038 595.986M191.355 595.119L174.866 568H141.64L157.882 595.986M191.355 595.119L174.123 624.468M191.355 595.119L157.882 595.986M191.355 595.119L207.844 568H241.07L224.829 595.986M191.355 595.119L208.588 624.468M191.355 595.119L224.829 595.986M174.123 624.468L191.355 653.444M174.123 624.468H141.546M191.355 653.444L174.123 682.05M191.355 653.444L157.882 653.073M191.355 653.444L208.588 624.468M191.355 653.444L208.588 682.05M191.355 653.444L224.829 653.073M174.123 682.05L191.355 710.531M174.123 682.05H141.535M191.355 710.531L174.123 739.136M191.355 710.531L158.005 710.407M191.355 710.531L208.588 682.05M191.355 710.531L208.588 739.136M191.355 710.531L224.705 710.407M174.123 739.136L191.355 767.741M174.123 739.136H141.517M191.355 767.741L174.123 796.594M191.355 767.741L158.129 767.618M191.355 767.741L208.588 739.136M191.355 767.741L208.588 796.594M191.355 767.741L224.581 767.618M174.123 796.594L191.329 825.076M174.123 796.594H141.517M191.329 825.076L174.99 853.062H141.609L157.634 825.076M191.329 825.076H157.634M157.634 825.076L141.517 796.594M141.517 796.594L158.129 767.618M141.517 796.594L125.4 825.076M141.517 796.594L124.904 767.618M141.517 796.594H108.911M158.129 767.618L141.517 739.136M141.517 739.136L158.005 710.407M141.517 739.136L124.904 767.618M141.517 739.136L125.028 710.407M141.517 739.136H108.911M158.005 710.407L141.535 682.05M141.535 682.05L157.882 653.073M157.882 653.073L141.546 624.468M141.546 624.468L157.882 595.986M291.033 595.119L274.544 568H241.318L257.559 595.986M291.033 595.119L273.8 624.468M291.033 595.119L257.559 595.986M291.033 595.119L307.522 568H340.748L324.507 595.986M291.033 595.119L308.266 624.468M291.033 595.119L324.507 595.986M273.8 624.468L291.033 653.444M273.8 624.468H241.224M291.033 653.444L273.8 682.05M291.033 653.444L257.559 653.073M291.033 653.444L308.266 624.468M291.033 653.444L308.266 682.05M291.033 653.444L324.507 653.073M273.8 682.05L291.033 710.531M273.8 682.05H241.212M291.033 710.531L273.8 739.136M291.033 710.531L257.683 710.407M291.033 710.531L308.266 682.05M291.033 710.531L308.266 739.136M291.033 710.531L324.383 710.407M273.8 739.136L291.033 767.741M273.8 739.136H241.194M291.033 767.741L273.8 796.594M291.033 767.741L257.807 767.618M291.033 767.741L308.266 739.136M291.033 767.741L308.266 796.594M291.033 767.741L324.259 767.618M273.8 796.594L291.007 825.076M273.8 796.594H241.194M291.007 825.076L274.668 853.062H241.286L257.311 825.076M291.007 825.076H257.311M257.311 825.076L241.194 796.594M241.194 796.594L257.807 767.618M241.194 796.594L225.077 825.076M241.194 796.594L224.581 767.618M241.194 796.594H208.588M257.807 767.618L241.194 739.136M241.194 739.136L257.683 710.407M241.194 739.136L224.581 767.618M241.194 739.136L224.705 710.407M241.194 739.136H208.588M257.683 710.407L241.212 682.05M241.212 682.05L257.559 653.073M257.559 653.073L241.224 624.468M241.224 624.468L257.559 595.986M390.711 595.119L374.222 568H340.996L357.237 595.986M390.711 595.119L373.478 624.468M390.711 595.119L357.237 595.986M390.711 595.119L407.2 568H440.426L424.185 595.986M390.711 595.119L407.944 624.468M390.711 595.119L424.185 595.986M373.478 624.468L390.711 653.444M373.478 624.468H340.901M390.711 653.444L373.478 682.05M390.711 653.444L357.237 653.073M390.711 653.444L407.944 624.468M390.711 653.444L407.944 682.05M390.711 653.444L424.185 653.073M373.478 682.05L390.711 710.531M373.478 682.05H340.89M390.711 710.531L373.478 739.136M390.711 710.531L357.361 710.407M390.711 710.531L407.944 682.05M390.711 710.531L407.944 739.136M390.711 710.531L424.061 710.407M373.478 739.136L390.711 767.741M373.478 739.136H340.872M390.711 767.741L373.478 796.594M390.711 767.741L357.485 767.618M390.711 767.741L407.944 739.136M390.711 767.741L407.944 796.594M390.711 767.741L423.937 767.618M373.478 796.594L390.684 825.076M373.478 796.594H340.872M390.684 825.076L374.346 853.062H340.964L356.989 825.076M390.684 825.076H356.989M356.989 825.076L340.872 796.594M340.872 796.594L357.485 767.618M340.872 796.594L324.755 825.076M340.872 796.594L324.259 767.618M340.872 796.594H308.266M357.485 767.618L340.872 739.136M340.872 739.136L357.361 710.407M340.872 739.136L324.259 767.618M340.872 739.136L324.383 710.407M340.872 739.136H308.266M357.361 710.407L340.89 682.05M340.89 682.05L357.237 653.073M357.237 653.073L340.901 624.468M340.901 624.468L357.237 595.986M489.645 595.119L473.156 568H439.93L456.171 595.986M489.645 595.119L472.412 624.468M489.645 595.119L456.171 595.986M472.412 624.468L489.645 653.444M472.412 624.468H439.835M489.645 653.444L472.412 682.05M489.645 653.444L456.171 653.073M472.412 682.05L489.645 710.531M472.412 682.05H439.824M489.645 710.531L472.412 739.136M489.645 710.531L456.295 710.407M472.412 739.136L489.645 767.741M472.412 739.136H439.806M489.645 767.741L472.412 796.594M489.645 767.741L456.419 767.618M472.412 796.594L489.618 825.076M472.412 796.594H439.806M489.618 825.076L473.28 853.062H439.898L455.923 825.076M489.618 825.076H455.923M455.923 825.076L439.806 796.594M439.806 796.594L456.419 767.618M456.419 767.618L439.806 739.136M439.806 739.136L456.295 710.407M456.295 710.407L439.824 682.05M439.824 682.05L456.171 653.073M456.171 653.073L439.835 624.468M439.835 624.468L456.171 595.986M588.578 595.119L572.089 568H538.864L555.105 595.986M588.578 595.119L571.346 624.468M588.578 595.119L555.105 595.986M571.346 624.468L588.578 653.444M571.346 624.468H538.769M588.578 653.444L571.346 682.05M588.578 653.444L555.105 653.073M571.346 682.05L588.578 710.531M571.346 682.05H538.758M588.578 710.531L571.346 739.136M588.578 710.531L555.229 710.407M571.346 739.136L588.578 767.741M571.346 739.136H538.74M588.578 767.741L571.346 796.594M588.578 767.741L555.352 767.618M571.346 796.594L588.552 825.076M571.346 796.594H538.74M588.552 825.076L572.213 853.062H538.832L554.857 825.076M588.552 825.076H554.857M554.857 825.076L538.74 796.594M538.74 796.594L555.352 767.618M555.352 767.618L538.74 739.136M538.74 739.136L555.229 710.407M555.229 710.407L538.758 682.05M538.758 682.05L555.105 653.073M555.105 653.073L538.769 624.468M538.769 624.468L555.105 595.986M687.512 595.119L671.023 568H637.797L654.038 595.986M687.512 595.119L670.279 624.468M687.512 595.119L654.038 595.986M670.279 624.468L687.512 653.444M670.279 624.468H637.703M687.512 653.444L670.279 682.05M687.512 653.444L654.038 653.073M670.279 682.05L687.512 710.531M670.279 682.05H637.692M687.512 710.531L670.279 739.136M687.512 710.531L654.162 710.407M670.279 739.136L687.512 767.741M670.279 739.136H637.673M687.512 767.741L670.279 796.594M687.512 767.741L654.286 767.618M670.279 796.594L687.486 825.076M670.279 796.594H637.673M687.486 825.076L671.147 853.062H637.765L653.79 825.076M687.486 825.076H653.79M653.79 825.076L637.673 796.594M637.673 796.594L654.286 767.618M654.286 767.618L637.673 739.136M637.673 739.136L654.162 710.407M654.162 710.407L637.692 682.05M637.692 682.05L654.038 653.073M654.038 653.073L637.703 624.468M637.703 624.468L654.038 595.986M108.911 624.468H141.487M108.911 682.05H141.498M108.911 796.594L91.7041 825.076M91.7041 825.076L108.043 853.062H141.424L125.4 825.076M91.7041 825.076H125.4M125.028 710.407L141.498 682.05M141.498 682.05L125.152 653.073M125.152 653.073L141.487 624.468M141.487 624.468L125.152 595.986M-8 595.119L8.48899 568H41.7149L25.4739 595.986M-8 595.119L9.23285 624.468M-8 595.119L25.4739 595.986M9.23285 624.468L-8 653.444M9.23285 624.468H41.8094M-8 653.444L9.23285 682.05M-8 653.444L25.4739 653.073M9.23285 682.05L-8 710.531M9.23285 682.05H41.8206M-8 710.531L9.23285 739.136M-8 710.531L25.3499 710.407M9.23285 739.136L-8 767.741M-8 767.741L9.23285 796.594M-8 767.741L25.2259 767.618M9.23285 796.594L-7.97355 825.076M-7.97355 825.076L8.36501 853.062H41.7467L25.7218 825.076M-7.97355 825.076H25.7218M25.3499 710.407L41.8206 682.05M41.8206 682.05L25.4739 653.073M25.4739 653.073L41.8094 624.468M41.8094 624.468L25.4739 595.986M208.588 624.468H241.165M208.588 682.05H241.176M208.588 796.594L191.382 825.076M191.382 825.076L207.72 853.062H241.102L225.077 825.076M191.382 825.076H225.077M224.705 710.407L241.176 682.05M241.176 682.05L224.829 653.073M224.829 653.073L241.165 624.468M241.165 624.468L224.829 595.986M308.266 624.468H340.842M308.266 682.05H340.854M308.266 796.594L291.06 825.076M291.06 825.076L307.398 853.062H340.78L324.755 825.076M291.06 825.076H324.755M324.383 710.407L340.854 682.05M340.854 682.05L324.507 653.073M324.507 653.073L340.842 624.468M340.842 624.468L324.507 595.986M407.944 624.468H440.52M407.944 682.05H440.531M407.944 739.136H440.55M407.944 796.594L390.737 825.076M407.944 796.594H440.55M390.737 825.076L407.076 853.062H440.457L424.433 825.076M390.737 825.076H424.433M424.433 825.076L440.55 796.594M440.55 796.594L423.937 767.618M423.937 767.618L440.55 739.136M440.55 739.136L424.061 710.407M424.061 710.407L440.531 682.05M440.531 682.05L424.185 653.073M424.185 653.073L440.52 624.468M440.52 624.468L424.185 595.986M490.388 595.119L506.877 568H540.103L523.862 595.986M490.388 595.119L507.621 624.468M490.388 595.119L523.862 595.986M507.621 624.468L490.388 653.444M507.621 624.468H540.198M490.388 653.444L507.621 682.05M490.388 653.444L523.862 653.073M507.621 682.05L490.388 710.531M507.621 682.05H540.209M490.388 710.531L507.621 739.136M490.388 710.531L523.738 710.407M507.621 739.136L490.388 767.741M507.621 739.136H540.227M490.388 767.741L507.621 796.594M490.388 767.741L523.614 767.618M507.621 796.594L490.415 825.076M507.621 796.594H540.227M490.415 825.076L506.753 853.062H540.135L524.11 825.076M490.415 825.076H524.11M524.11 825.076L540.227 796.594M540.227 796.594L523.614 767.618M523.614 767.618L540.227 739.136M540.227 739.136L523.738 710.407M523.738 710.407L540.209 682.05M540.209 682.05L523.862 653.073M523.862 653.073L540.198 624.468M540.198 624.468L523.862 595.986M590.066 595.119L606.555 568H639.781L623.54 595.986M590.066 595.119L607.299 624.468M590.066 595.119L623.54 595.986M607.299 624.468L590.066 653.444M607.299 624.468H639.876M590.066 653.444L607.299 682.05M590.066 653.444L623.54 653.073M607.299 682.05L590.066 710.531M607.299 682.05H639.887M590.066 710.531L607.299 739.136M590.066 710.531L623.416 710.407M607.299 739.136L590.066 767.741M607.299 739.136H639.905M590.066 767.741L607.299 796.594M590.066 767.741L623.292 767.618M607.299 796.594L590.093 825.076M607.299 796.594H639.905M590.093 825.076L606.431 853.062H639.813L623.788 825.076M590.093 825.076H623.788M623.788 825.076L639.905 796.594M639.905 796.594L623.292 767.618M623.292 767.618L639.905 739.136M639.905 739.136L623.416 710.407M623.416 710.407L639.887 682.05M639.887 682.05L623.54 653.073M623.54 653.073L639.876 624.468M639.876 624.468L623.54 595.986" stroke="#F0F0F0"/>
</g>
<defs>
<clipPath id="clip0_317_20543">
<rect width="680" height="1080" fill="white"/>
</clipPath>
</defs>
</svg>
